<svg xmlns="http://www.w3.org/2000/svg" viewBox="0 0 760 620" role="img" aria-labelledby="title desc">
<title id="title">Bibliostack Ground Floor</title>
<desc id="desc">Circular ground floor plan with locations A to H, lift at the top and entrance at the bottom.</desc>
<rect width="760" height="620" fill="white"/>
<rect x="55" y="35" width="650" height="545" fill="white" stroke="#111" stroke-width="2"/>
<text x="380" y="70" text-anchor="middle" font-family="Arial,Helvetica,sans-serif" font-size="27" font-weight="700">Bibliostack</text>
<text x="380" y="94" text-anchor="middle" font-family="Arial,Helvetica,sans-serif" font-size="18">Ground Floor</text>
<!-- outer circular wall -->
<path d="M315 112 C205 126 105 215 96 335 C88 458 190 535 327 548
         M433 548 C570 534 672 456 664 335 C655 215 555 126 445 112"
      fill="none" stroke="#111" stroke-width="3"/>
<!-- lift -->
<rect x="322" y="98" width="116" height="34" fill="white" stroke="#111" stroke-width="2"/>
<text x="380" y="121" text-anchor="middle" font-family="Arial,Helvetica,sans-serif" font-size="18" font-weight="700">Lift</text>
<!-- entrance -->
<path d="M330 548 L338 608 L421 596 L411 548" fill="white" stroke="#111" stroke-width="3"/>
<text x="305" y="594" font-family="Arial,Helvetica,sans-serif" font-size="16">You are here</text>
<text x="338" y="570" font-family="Arial,Helvetica,sans-serif" font-size="26" font-weight="700">X</text>
<path d="M330 587 l14 -15" stroke="#111" stroke-width="2"/>
<!-- windows -->
<g stroke="#111" stroke-width="5">
<line x1="176" y1="139" x2="183" y2="157"/>
<line x1="110" y1="210" x2="128" y2="218"/>
<line x1="102" y1="437" x2="121" y2="427"/>
<line x1="184" y1="523" x2="192" y2="505"/>
<line x1="576" y1="139" x2="569" y2="157"/>
<line x1="650" y1="210" x2="632" y2="218"/>
<line x1="568" y1="523" x2="560" y2="505"/>
</g>
<!-- bookshelves -->
<g fill="none" stroke="#111" stroke-width="2">
<path d="M171 190 l50 -29" />
<path d="M162 211 l55 -31" />
<path d="M146 281 q-10 55 7 105" />
<path d="M185 281 q-10 55 7 105" />
<path d="M534 174 q45 14 78 49" />
<path d="M599 283 q14 55 -6 116" />
<path d="M313 412 l55 14" />
<path d="M291 447 l68 20" />
<rect x="332" y="326" width="95" height="13"/>
</g>
<!-- shelf hatch ticks -->
<g stroke="#111" stroke-width="1">
<line x1="174" y1="187" x2="179" y2="197"/><line x1="179" y1="184.2" x2="184" y2="194.2"/><line x1="184" y1="181.4" x2="189" y2="191.4"/><line x1="189" y1="178.6" x2="194" y2="188.6"/><line x1="194" y1="175.8" x2="199" y2="185.8"/><line x1="199" y1="173" x2="204" y2="183"/><line x1="204" y1="170.2" x2="209" y2="180.2"/><line x1="209" y1="167.4" x2="214" y2="177.4"/><line x1="214" y1="164.6" x2="219" y2="174.6"/><line x1="219" y1="161.8" x2="224" y2="171.8"/>
<line x1="150" y1="292" x2="162" y2="292"/><line x1="152" y1="302" x2="164" y2="302"/><line x1="154" y1="312" x2="166" y2="312"/><line x1="156" y1="322" x2="168" y2="322"/><line x1="158" y1="332" x2="170" y2="332"/><line x1="160" y1="342" x2="172" y2="342"/><line x1="162" y1="352" x2="174" y2="352"/><line x1="164" y1="362" x2="176" y2="362"/><line x1="166" y1="372" x2="178" y2="372"/>
<line x1="189" y1="292" x2="201" y2="292"/><line x1="191" y1="302" x2="203" y2="302"/><line x1="193" y1="312" x2="205" y2="312"/><line x1="195" y1="322" x2="207" y2="322"/><line x1="197" y1="332" x2="209" y2="332"/><line x1="199" y1="342" x2="211" y2="342"/><line x1="201" y1="352" x2="213" y2="352"/><line x1="203" y1="362" x2="215" y2="362"/><line x1="205" y1="372" x2="217" y2="372"/>
<line x1="542" y1="178" x2="539" y2="190"/><line x1="548" y1="181.7" x2="545" y2="193.7"/><line x1="554" y1="185.4" x2="551" y2="197.4"/><line x1="560" y1="189.1" x2="557" y2="201.1"/><line x1="566" y1="192.8" x2="563" y2="204.8"/><line x1="572" y1="196.5" x2="569" y2="208.5"/><line x1="578" y1="200.2" x2="575" y2="212.2"/><line x1="584" y1="203.9" x2="581" y2="215.9"/><line x1="590" y1="207.6" x2="587" y2="219.6"/><line x1="596" y1="211.3" x2="593" y2="223.3"/>
<line x1="601" y1="293" x2="614" y2="293"/><line x1="599" y1="304" x2="612" y2="304"/><line x1="597" y1="315" x2="610" y2="315"/><line x1="595" y1="326" x2="608" y2="326"/><line x1="593" y1="337" x2="606" y2="337"/><line x1="591" y1="348" x2="604" y2="348"/><line x1="589" y1="359" x2="602" y2="359"/><line x1="587" y1="370" x2="600" y2="370"/><line x1="585" y1="381" x2="598" y2="381"/>
<line x1="339" y1="326" x2="339" y2="339"/><line x1="347" y1="326" x2="347" y2="339"/><line x1="355" y1="326" x2="355" y2="339"/><line x1="363" y1="326" x2="363" y2="339"/><line x1="371" y1="326" x2="371" y2="339"/><line x1="379" y1="326" x2="379" y2="339"/><line x1="387" y1="326" x2="387" y2="339"/><line x1="395" y1="326" x2="395" y2="339"/><line x1="403" y1="326" x2="403" y2="339"/><line x1="411" y1="326" x2="411" y2="339"/><line x1="419" y1="326" x2="419" y2="339"/>
</g>
<!-- location labels -->
<g font-family="Arial,Helvetica,sans-serif" font-size="21" font-weight="700" text-anchor="middle">
<g transform="translate(330 189) rotate(-22)"><rect x="-20" y="-18" width="40" height="36" fill="white" stroke="#111" stroke-width="2"/><text y="8">A</text></g>
<g transform="translate(145 258) rotate(15)"><rect x="-20" y="-18" width="40" height="36" fill="white" stroke="#111" stroke-width="2"/><text y="8">B</text></g>
<g transform="translate(382 292)"><rect x="-20" y="-18" width="40" height="36" fill="white" stroke="#111" stroke-width="2"/><text y="8">C</text></g>
<g transform="translate(584 249) rotate(-12)"><rect x="-20" y="-18" width="40" height="36" fill="white" stroke="#111" stroke-width="2"/><text y="8">D</text></g>
<g transform="translate(382 372)"><rect x="-20" y="-18" width="40" height="36" fill="white" stroke="#111" stroke-width="2"/><text y="8">E</text></g>
<g transform="translate(177 410) rotate(-28)"><rect x="-20" y="-18" width="40" height="36" fill="white" stroke="#111" stroke-width="2"/><text y="8">F</text></g>
<g transform="translate(394 492)"><rect x="-20" y="-18" width="40" height="36" fill="white" stroke="#111" stroke-width="2"/><text y="8">G</text></g>
<g transform="translate(482 467) rotate(-25)"><rect x="-20" y="-18" width="40" height="36" fill="white" stroke="#111" stroke-width="2"/><text y="8">H</text></g>
</g>
<!-- key -->
<rect x="520" y="430" width="155" height="100" fill="white" stroke="#111" stroke-width="2"/>
<text x="540" y="452" font-family="Arial,Helvetica,sans-serif" font-size="15" font-weight="700">Key</text>
<rect x="552" y="467" width="78" height="10" fill="none" stroke="#111"/>
<g stroke="#111" stroke-width="1"><line x1="558" y1="467" x2="558" y2="477"/><line x1="565" y1="467" x2="565" y2="477"/><line x1="572" y1="467" x2="572" y2="477"/><line x1="579" y1="467" x2="579" y2="477"/><line x1="586" y1="467" x2="586" y2="477"/><line x1="593" y1="467" x2="593" y2="477"/><line x1="600" y1="467" x2="600" y2="477"/><line x1="607" y1="467" x2="607" y2="477"/><line x1="614" y1="467" x2="614" y2="477"/><line x1="621" y1="467" x2="621" y2="477"/></g>
<text x="590" y="495" text-anchor="middle" font-family="Arial,Helvetica,sans-serif" font-size="13">Bookshelf</text>
<line x1="544" y1="510" x2="650" y2="510" stroke="#111" stroke-width="3"/>
<line x1="544" y1="503" x2="544" y2="517" stroke="#111" stroke-width="3"/>
<line x1="650" y1="503" x2="650" y2="517" stroke="#111" stroke-width="3"/>
<text x="597" y="527" text-anchor="middle" font-family="Arial,Helvetica,sans-serif" font-size="13">Window</text>
</svg>