<svg xmlns="http://www.w3.org/2000/svg" width="1000" height="620" viewBox="0 0 1000 620"><rect width="100%" height="100%" fill="white"/><style>text{font-family:Arial,sans-serif;fill:#20242a}.t{font-weight:700;font-size:24px}.a{font-size:15px}.s{font-size:13px;fill:#5c6470}.g{stroke:#d9dde2;stroke-width:1}.b{stroke:#20242a;stroke-width:2}.n{font-weight:700}</style><text x="500" y="42" text-anchor="middle" class="t">World forests and timber by region</text><text x="280" y="92" text-anchor="middle" font-size="19" font-weight="700">Percentage of world forest</text><text x="280" y="116" text-anchor="middle" class="a">in 5 different regions</text><text x="650" y="92" text-anchor="middle" font-size="19" font-weight="700">Percentage of timber</text><text x="650" y="116" text-anchor="middle" class="a">in each region</text><path d="M 280 320 L 280 165 A 155 155 0 0 1 410.87082845281236 236.94684677825552 Z" fill="#4e5155" stroke="white" stroke-width="2"/><text x="326.29652808117487" y="240.78692804778473" text-anchor="middle" font-size="14">16%</text><path d="M 280 320 L 410.87082845281236 236.94684677825552 A 155 155 0 0 1 345.99579019258624 460.24819313223304 Z" fill="#8e9297" stroke="white" stroke-width="2"/><text x="372.2842231935542" y="351.8110452903699" text-anchor="middle" font-size="14">27%</text><path d="M 280 320 L 345.99579019258624 460.24819313223304 A 155 155 0 0 1 214.00420980741373 460.24819313223304 Z" fill="#6e7277" stroke="white" stroke-width="2"/><text x="279.99999999999994" y="421.1" text-anchor="middle" font-size="14">14%</text><path d="M 280 320 L 214.00420980741373 460.24819313223304 A 155 155 0 0 1 125 320 Z" fill="#f2f3f4" stroke="white" stroke-width="2"/><text x="198.86008635925634" y="376.49295499748155" text-anchor="middle" font-size="14">18%</text><path d="M 280 320 L 125 320 A 155 155 0 0 1 279.99999999999994 165 Z" fill="#b9bdc1" stroke="white" stroke-width="2"/><text x="212.04703832797276" y="257.0470383279728" text-anchor="middle" font-size="14">25%</text><path d="M 650 320 L 650 165 A 155 155 0 0 1 803.777778703744 300.57334879753284 Z" fill="#4e5155" stroke="white" stroke-width="2"/><text x="713.552070257603" y="252.91432620851285" text-anchor="middle" font-size="14">23%</text><path d="M 650 320 L 803.777778703744 300.57334879753284 A 155 155 0 0 1 790.248193132233 385.99579019258624 Z" fill="#8e9297" stroke="white" stroke-width="2"/><text x="744.9168495311927" y="340.0333520903662" text-anchor="middle" font-size="14">9%</text><path d="M 650 320 L 790.248193132233 385.99579019258624 A 155 155 0 0 1 650 475 Z" fill="#6e7277" stroke="white" stroke-width="2"/><text x="701.4929549974815" y="406.13991364074366" text-anchor="middle" font-size="14">18%</text><path d="M 650 320 L 650 475 A 155 155 0 0 1 502.5862399742512 367.89763412811686 Z" fill="#f2f3f4" stroke="white" stroke-width="2"/><text x="593.5138372546934" y="402.74653315943243" text-anchor="middle" font-size="14">20%</text><path d="M 650 320 L 502.5862399742512 367.89763412811686 A 155 155 0 0 1 650 165 Z" fill="#b9bdc1" stroke="white" stroke-width="2"/><text x="572.2534668405675" y="268.5138372546933" text-anchor="middle" font-size="14">30%</text><rect x="830" y="180" width="22" height="22" fill="#4e5155" stroke="#444"/><text x="865" y="197" class="a">South America</text><rect x="830" y="230" width="22" height="22" fill="#8e9297" stroke="#444"/><text x="865" y="247" class="a">Africa</text><rect x="830" y="280" width="22" height="22" fill="#6e7277" stroke="#444"/><text x="865" y="297" class="a">Asia</text><rect x="830" y="330" width="22" height="22" fill="#f2f3f4" stroke="#444"/><text x="865" y="347" class="a">Europe</text><rect x="830" y="380" width="22" height="22" fill="#b9bdc1" stroke="#444"/><text x="865" y="397" class="a">North America</text></svg>